<svg aria-hidden="true" style="position:absolute;width:0;height:0"
    xmlns="http://www.w3.org/2000/svg" overflow="hidden">
    <defs>
        <symbol id="plus" viewBox="0 0 32 32">
            <path d="M32 3.223l-3.223-3.223-12.777 12.777-12.777-12.777-3.223 3.223 12.777 12.777-12.777 12.777 3.223 3.223 12.777-12.777 12.777 12.777 3.223-3.223-12.777-12.777 12.777-12.777z"></path>
        </symbol>
        <symbol id="antenna" viewBox="0 0 32 32">
            <path fill="var(--color1, #212121)" d="M30.773 22.098l-8.443-8.505.937-4.616c.225.09.485.144.758.146h.033a2.16 2.16 0 10-2.024-1.405l-.005-.015-.005-.015-4.96.606L8.973.161a.53.53 0 00-.376-.16.533.533 0 00-.373.155L6.712 1.66a.534.534 0 000 .754l.814.825C6.383 5.301 5.71 7.761 5.71 10.378c0 4.106 1.656 7.824 4.336 10.525l-.001-.001c.041.04.09.072.143.096l.003.001a2.9 2.9 0 00-.052.546v6.188h-6.4a2.67 2.67 0 00-2.667 2.666v1.067c0 .295.239.534.534.534H26.14a.534.534 0 00.533-.534v-1.067a2.67 2.67 0 00-2.666-2.666h-6.4v-2.742c.915.203 1.966.32 3.044.32h.012c2.608 0 5.058-.675 7.185-1.86l-.075.038-.077.039.818.823a.53.53 0 00.376.16.533.533 0 00.373-.155l1.512-1.504a.534.534 0 000-.754zM23.28 6.233a1.067 1.067 0 11.754 1.822h-.006a1.066 1.066 0 01-.747-1.822h-.002zm-1.256 3.504l-.598 2.946-1.175-1.183 1.774-1.763zm-.605-.902l-1.92 1.909-1.486-1.493 3.406-.416zM24.004 28.8a1.6 1.6 0 011.6 1.6v.534H2.138V30.4a1.6 1.6 0 011.6-1.6h20.267zm-7.466-2.134v1.067h-5.334v-1.067h5.334zM11.204 25.6v-4.053c0-1.294 1.196-2.346 2.667-2.346s2.667 1.053 2.667 2.346V25.6h-5.334zm6.4-1.696v-2.357c0-1.882-1.675-3.413-3.733-3.413h-.058c-1.353 0-2.54.707-3.213 1.771l-.009.016a13.764 13.764 0 01-3.812-9.529v-.022.001c0-2.314.567-4.496 1.569-6.414l-.036.077 18.602 18.709c-1.823.947-3.979 1.502-6.266 1.502-1.079 0-2.128-.124-3.136-.357l.093.018zm11.289-.684L7.836 2.039l.754-.752 7.935 7.98c.004 0 .006.007.009.01l13.115 13.191-.757.752z" />
            <path fill="var(--color2, #2196f3)" d="M13.876 20.267h-.007-.002a1.6 1.6 0 00-.002 3.2h.008a1.6 1.6 0 00.001-3.2zm.373 1.978a.535.535 0 11-.378-.912.533.533 0 01.373.911h.005z" />
        </symbol>
        <symbol id="astronaut" viewBox="0 0 32 32">
            <path fill="var(--color2, #2196f3)" d="M31.974 4.524a.539.539 0 00-.424-.362h-.006l-1.911-.278-.855-1.731c-.179-.365-.777-.365-.956 0l-.855 1.731-1.911.278a.534.534 0 00-.296.91l1.383 1.348-.326 1.903a.534.534 0 00.524.624.525.525 0 00.253-.064l-.003.001 1.709-.899 1.709.899a.534.534 0 00.773-.569v.006l-.326-1.903 1.383-1.348a.535.535 0 00.133-.553l.001.004.001.004zm-2.463 1.327a.528.528 0 00-.153.475v-.003l.191 1.114-1-.526a.515.515 0 00-.504.003l.003-.001.003-.001-1 .526.191-1.114a.534.534 0 00-.152-.471l-.811-.789 1.119-.163a.537.537 0 00.401-.289l.001-.003.5-1.013.5 1.013a.535.535 0 00.399.292h.003l1.119.162-.809.79zm-3.377 14.671h-1.067v1.067h1.067v-1.067zm0 2.134h-1.067v1.066h1.067v-1.066zm1.066-1.067h-1.067v1.067H27.2v-1.067zm-2.133 0H24v1.067h1.067v-1.067zm-2.667 4.8h-1.067v1.067H22.4v-1.067zm0 2.134h-1.067v1.067H22.4v-1.067zm1.067-1.067H22.4v1.067h1.067v-1.067zm-2.133 0h-1.067v1.067h1.067v-1.067zM16 24.256h-1.066v1.067H16v-1.067zm0 2.133h-1.066v1.067H16v-1.067zm1.067-1.067H16v1.067h1.067v-1.067zm-2.133 0h-1.067v1.067h1.067v-1.067zm-9.067-19.2H4.801v1.066h1.066V6.122zm0 2.134H4.801v1.066h1.066V8.256zm1.066-1.067H5.866v1.067h1.066V7.189zm-2.133 0H3.733v1.067H4.8V7.189z" />
            <path fill="var(--color1, #212121)" d="M24.715 14.16a1.774 1.774 0 00-1.169-.702l-.01-.001-.009-.001a1.759 1.759 0 00-1.348.358l.004-.003.004-.003-1.253.96-1.898 1.417-1.358-.541c2.421-1.086 4.113-3.508 4.113-6.32 0-3.823-3.122-6.934-6.961-6.934S7.869 5.5 7.869 9.324c0 1.386.415 2.674 1.12 3.759l-2.768-.024c-.009 0-.016.005-.023.005a.53.53 0 00-.162.034l.003-.001.004-.001c-.013.005-.026.007-.038.013-.006.003-.013.003-.019.006l-3.234 1.597-1.893.91a.335.335 0 00-.065.037l.001-.001.001-.001a1.783 1.783 0 00-.589 2.316l-.005-.01-.005-.01c.22.424.592.742 1.043.885l.013.003a1.763 1.763 0 001.397-.137l-.009.005-.009.005 1.388-.738 2.264-1.169 1.357-.008-6.782 6.749a1.638 1.638 0 00-.491 1.171v.007a1.668 1.668 0 001.667 1.664h.005c.459 0 .875-.185 1.177-.485l1.314-1.309 1.741-1.3.901.897-3.102 3.088a1.64 1.64 0 00-.491 1.172v.008c0 .918.744 1.662 1.662 1.662h.01c.459 0 .875-.185 1.177-.485l4.488-4.472c.007-.006.016-.009.022-.016l5.166-5.658 3.471.494a.477.477 0 00.265-.033l-.003.001c.017-.006.032-.015.049-.023.019-.01.039-.015.058-.027l3.213-2.133c.012-.008.018-.021.029-.03.013-.01.029-.014.041-.026l1.271-1.191c.348-.326.564-.787.564-1.3 0-.4-.132-.769-.355-1.066l.003.005zM2.13 17.77a.694.694 0 01-.569.049l.005.002.005.001a.719.719 0 01-.216-1.257l.002-.001.002-.001 1.314-.632.449 1.313-.992.527zm3.497-1.828l-1.548.8-.255-.746-.184-.537 2.027-1.001-.04 1.484zm15.1-6.62c0 .918-.219 1.785-.599 2.56l-4.181-1.899a1.867 1.867 0 00-.776-1.38l-.006-.004-.006-.004 1.464-4.86c2.377.756 4.104 2.974 4.104 5.588zm-11.789 0c0-3.235 2.644-5.867 5.894-5.867.253 0 .5.022.745.053l-1.432 4.753c-.019 0-.037-.006-.057-.006h-.001a1.872 1.872 0 00-1.872 1.867 1.873 1.873 0 001.872 1.867h.001c.695 0 1.295-.383 1.618-.944l3.863 1.755a5.89 5.89 0 01-4.737 2.389c-3.25 0-5.894-2.632-5.894-5.867zm5.957.8c0 .441-.362.8-.806.8h-.001a.804.804 0 01-.804-.8c0-.441.361-.8.806-.8s.806.359.806.8zM2.464 25.146a.606.606 0 01-.855.001.59.59 0 010-.844l.962-.959.852.848-.959.955zm3.214 3.734a.606.606 0 01-.855.001.59.59 0 010-.844l.963-.959.852.848-.96.955zm3.482-3.469l-.001.001-1.765 1.76-.852-.848 1.765-1.757a.525.525 0 00.089-.133l.001-.003c.007-.014.02-.026.026-.04.016-.041.019-.085.026-.128.003-.025.014-.048.014-.073 0-.035-.013-.07-.02-.105-.006-.032-.006-.064-.019-.096a.563.563 0 00-.092-.138c-.01-.012-.014-.027-.025-.038h-.001l-.001-.002-1.607-1.6c-.017-.017-.039-.024-.058-.038a.682.682 0 00-.081-.056l-.003-.001-.003-.001a.445.445 0 00-.087-.03l-.003-.001-.003-.001a.559.559 0 00-.099-.02h-.004l-.023-.001a.653.653 0 00-.078.005h.006c-.036.005-.069.009-.104.021a.495.495 0 00-.098.047l.002-.001.002-.001c-.02.011-.043.015-.061.029l-1.774 1.324-.901-.897 2.399-2.386 4.36 4.289-.928.919zm6.819-7.017c-.016-.002-.03.004-.046.003l-.027-.001a.494.494 0 00-.095.009h.006a.495.495 0 00-.189.071l.002-.001.002-.001a.598.598 0 00-.083.062c-.013.011-.028.016-.04.029l-4.698 5.146-4.328-4.256 2.833-2.818a.535.535 0 00-.378-.911h-.002l-2.219.013.028-1.607 3.104.027a6.906 6.906 0 004.97 2.101h.012c.438 0 .864-.046 1.28-.122.04.032.08.064.129.085l2.41.96.152.759.178.885-3.003-.427zm4.041.178l-.313-1.558 1.446-1.08.946 1.257-2.08 1.381zm3.753-2.831l-.837.785-.931-1.237.831-.637a.734.734 0 01.547-.143h-.004c.352.049.62.348.621.71v.002a.708.708 0 01-.226.519z" />
            <path fill="var(--color1, #212121)" d="M13.602 18.544l-2.143-2.134a.53.53 0 00-.752 0l-2.143 2.133a.535.535 0 000 .756l2.142 2.134a.53.53 0 00.752 0l2.143-2.134a.531.531 0 000-.756zm-2.519 1.759l-1.387-1.381 1.386-1.381 1.387 1.381-1.387 1.381zm6.081-15.232l-.258 1.036c.071.018 1.738.452 1.738 2.149h1.067c0-2.017-1.666-2.965-2.547-3.184zm2.547 4.251h-1.067v1.066h1.067V9.322z" />
        </symbol>
        <symbol id="clock" viewBox="0 0 32 32">
            <path fill="var(--color1, #212121)" d="M31.296 15.301C31.295 6.849 24.441-.002 15.988 0S.685 6.855.687 15.308c.002 6.788 4.422 12.543 10.54 14.545l.108.031a.662.662 0 00.532-.066l-.003.002a.64.64 0 00.282-.352l.001-.005 3.865-12.25a1.912 1.912 0 10-.864-3.625l.022-.01-5.106-5.107a.638.638 0 00-.902.902l5.103 5.109a1.87 1.87 0 00.529 2.303l.004.003.004.003-3.683 11.673C3.841 25.783.115 17.71 2.795 10.432S13.549-.572 20.827 2.109c7.278 2.681 11.004 10.754 8.323 18.032-1.345 3.581-4.003 6.406-7.374 7.938l-.088.036-.398-1.874a.64.64 0 00-1.05-.342l.001-.001.001-.001-3.837 3.426a.635.635 0 00.222 1.082l.005.001.005.001 4.899 1.563a.637.637 0 00.817-.748l.001.004.001.004-.391-1.839c5.528-2.374 9.329-7.772 9.329-14.057v-.032zm-15.304-.637a.638.638 0 010 1.276.638.638 0 010-1.276zm2.1 14.864l2.184-1.948.603 2.84-2.787-.892z" />
            <path fill="var(--color2, #2196f3)" d="M15.354 3.185V4.46a.638.638 0 001.276 0V3.185a.638.638 0 00-1.276 0zM3.876 14.664a.638.638 0 000 1.276h1.275a.638.638 0 000-1.276H3.876zm24.232 1.275a.638.638 0 000-1.276h-1.275a.638.638 0 000 1.276h1.275z" />
        </symbol>
        <symbol id="diagram" viewBox="0 0 32 32">
            <path fill="var(--color2, #2196f3)" d="M14.926 14.965h1.066v4.798h-1.066v-4.798zm4.264 2.132h1.066v2.665H19.19v-2.665zm-8.529 1.599h1.066v1.066h-1.066v-1.066zm-3.198-.533h1.066v1.599H7.463v-1.599z" />
            <path fill="var(--color1, #212121)" d="M1.599 28.291h25.586a1.6 1.6 0 001.599-1.599V24.56a1.6 1.6 0 00-1.599-1.599h-.533V9.667l3.028-2.868a1.608 1.608 0 10-.738-.743l-.004-.01-.004-.01-2.281 2.162v-1.23a1.6 1.6 0 00-1.599-1.599H3.731a1.6 1.6 0 00-1.599 1.599V22.96h-.533A1.6 1.6 0 000 24.559v2.132a1.6 1.6 0 001.599 1.599zM30.384 4.837a.533.533 0 010 1.066.533.533 0 010-1.066zM3.198 6.969c0-.294.239-.533.533-.533h21.323c.294 0 .533.239.533.533v2.239l-1.066 1.013V8.036a.534.534 0 00-.534-.534H4.798a.534.534 0 00-.534.533v13.327c0 .294.239.533.534.533h19.189a.534.534 0 00.534-.533v-9.675l1.066-1.01V22.96H3.198V6.969zm4.798 6.93h-.008a1.6 1.6 0 101.115 2.748l1.853.93a.533.533 0 00.636-.121l3.939-4.432 3.872 2.902a.532.532 0 00.686-.04l3.365-3.188v8.131H5.331V8.568h18.123v2.661l-3.771 3.572-3.904-2.927a.53.53 0 00-.717.07v.002l-3.993 4.493-1.493-.746c.011-.064.017-.128.02-.193a1.6 1.6 0 00-1.599-1.599zm.533 1.599a.533.533 0 01-1.066 0 .533.533 0 011.066 0zm3.198 8.528h5.33v.533a.533.533 0 01-.533.533h-4.265a.533.533 0 01-.533-.533v-.533zm-10.66.534c0-.294.238-.533.533-.533h9.062v.533a1.6 1.6 0 001.599 1.599h4.265a1.6 1.6 0 001.599-1.599v-.533h9.062c.294 0 .533.239.533.533v2.132a.533.533 0 01-.533.533H1.601a.533.533 0 01-.533-.533V24.56z" />
        </symbol>
        <symbol id="envelope" viewBox="0 0 43 32">
            <path d="M38.667 0H4C1.795 0 0 1.795 0 4v24c0 2.205 1.795 4 4 4h34.667c2.205 0 4-1.795 4-4V4c0-2.205-1.795-4-4-4zm0 2.667c.181 0 .355.037.512.104L21.334 18.238 3.489 2.771c.151-.065.327-.104.512-.104h34.667zm0 26.666H4A1.333 1.333 0 012.667 28V5.587l17.792 15.421c.233.203.539.327.875.327s.642-.124.876-.328l-.002.001L40 5.587V28c0 .736-.597 1.333-1.333 1.333z" />
        </symbol>
        <symbol id="facebook" viewBox="0 0 32 32">
            <path d="M21.328 5.312h2.923V.224A35.256 35.256 0 0020.214 0H19.995c-4.213 0-7.099 2.65-7.099 7.52V12H8.25v5.688h4.646V32h5.699V17.69h4.459l.707-5.688h-5.168V8.08c0-1.643.443-2.768 2.734-2.768z" />
        </symbol>
        <symbol id="instagram" viewBox="0 0 32 32">
            <path d="M31.969 9.408c-.075-1.7-.35-2.869-.744-3.882a7.845 7.845 0 00-1.849-2.837l-.001-.001A7.88 7.88 0 0026.597.862l-.054-.018C25.524.45 24.361.175 22.661.1 20.948.019 20.404 0 16.06 0s-4.888.019-6.595.094c-1.7.075-2.869.35-3.882.744a7.845 7.845 0 00-2.837 1.849l-.001.001A7.89 7.89 0 00.919 5.466l-.018.054C.507 6.539.232 7.702.157 9.402c-.081 1.713-.1 2.257-.1 6.601s.019 4.888.094 6.595c.075 1.7.35 2.869.744 3.882a7.941 7.941 0 001.849 2.837l.001.001a7.89 7.89 0 002.778 1.826l.054.018c1.019.394 2.182.669 3.882.744 1.706.075 2.25.094 6.595.094s4.888-.019 6.595-.094c1.7-.075 2.869-.35 3.882-.744a8.233 8.233 0 004.663-4.627l.019-.055c.394-1.019.669-2.182.744-3.882.075-1.707.094-2.251.094-6.595s-.006-4.888-.081-6.595zm-2.882 13.065c-.069 1.563-.331 2.407-.55 2.969a5.334 5.334 0 01-3.002 3.025l-.036.013c-.563.219-1.413.481-2.969.55-1.688.075-2.194.094-6.464.094s-4.782-.019-6.464-.094c-1.563-.069-2.407-.331-2.969-.55a4.947 4.947 0 01-1.837-1.193l-.001-.001a4.988 4.988 0 01-1.183-1.804l-.011-.034c-.219-.563-.481-1.413-.55-2.969-.075-1.688-.094-2.194-.094-6.464s.019-4.782.094-6.464c.069-1.563.331-2.407.55-2.969a4.885 4.885 0 011.198-1.836l.002-.002a4.988 4.988 0 011.804-1.183l.034-.011c.563-.219 1.413-.481 2.969-.55 1.688-.075 2.194-.094 6.464-.094 4.276 0 4.782.019 6.464.094 1.563.069 2.407.331 2.969.55a4.947 4.947 0 011.837 1.193l.001.001a4.988 4.988 0 011.183 1.804l.011.034c.219.563.481 1.413.55 2.969.075 1.688.094 2.194.094 6.464s-.019 4.77-.094 6.458z" />
            <path d="M16.059 7.783c-4.538 0-8.22 3.682-8.22 8.22s3.682 8.22 8.22 8.22 8.22-3.682 8.22-8.22-3.682-8.22-8.22-8.22zm0 13.552a5.334 5.334 0 01-.006-10.664h.005a5.334 5.334 0 01.006 10.664h-.005zM26.524 7.458a1.919 1.919 0 11-3.838 0 1.919 1.919 0 113.838 0z" />
        </symbol>
        <symbol id="linkedin" viewBox="0 0 32 32">
            <path d="M31.992 32H32V20.262c0-5.741-1.237-10.163-7.947-10.163-3.227 0-5.392 1.77-6.277 3.45h-.093v-2.914h-6.365v21.363h6.627V21.42c0-2.786.528-5.48 3.978-5.48 3.398 0 3.448 3.179 3.448 5.658V32h6.621zM.528 10.635h6.635V32H.528V10.635zM3.843 0A3.844 3.844 0 000 3.843c0 2.12 1.722 3.878 3.843 3.878 2.12 0 3.842-1.757 3.842-3.878S5.965.002 3.844 0z" />
        </symbol>
        <symbol id="logo1" viewBox="0 0 29 32">
            <path d="M3.84 0l4.677 4.428h13.046v12.351l4.677 4.428V.001H3.84z" />
            <path d="M0 4.241v20.6h21.76v-8.188L8.655 4.246 0 4.241zm17.615 17.587H3.443V7.973h1.002V20.89h13.17v.938zM6.266 28.662l.524-1.078h.438l-.764 1.437v.838h-.397v-.838l-.764-1.437h.439l.524 1.078zm2.247.667h-.881l-.184.53h-.411l.859-2.275h.355l.861 2.275h-.413l-.186-.53zm-.77-.319h.659l-.33-.944-.33.944zm2.328.234c0-.105.029-.202.086-.289.058-.089.17-.193.339-.314a1.503 1.503 0 01-.178-.268l-.004-.008-.004-.008a.568.568 0 01-.052-.225v-.001c0-.179.054-.319.163-.422s.254-.156.437-.156h.023c.147 0 .282.056.383.148.106.097.16.218.16.361v.004a.499.499 0 01-.075.263l.001-.002.001-.002a.869.869 0 01-.23.234l-.003.002-.003.002-.155.113.44.518a.9.9 0 00.095-.406v-.012.001h.33c0 .28-.065.509-.196.689l.334.396h-.44l-.128-.152a.925.925 0 01-.554.183h-.028c-.225 0-.405-.06-.54-.179a.595.595 0 01-.202-.447v-.02zm.753.343a.573.573 0 00.36-.129l-.001.001-.497-.586-.049.035c-.125.095-.188.203-.188.325 0 .105.034.191.102.256a.376.376 0 00.254.099h.018zm-.21-1.466c0 .088.054.197.161.33l.173-.118.049-.039a.283.283 0 00.097-.212v-.011a.2.2 0 00-.067-.149.23.23 0 00-.16-.064H10.846a.224.224 0 00-.167.075.274.274 0 00-.066.179v.01zm4.134.997c-.023.243-.113.432-.269.568s-.364.204-.623.204h-.017a.903.903 0 01-.467-.13l.004.002a.875.875 0 01-.315-.357l-.002-.005-.002-.005a1.279 1.279 0 01-.117-.539v-.225c0-.214.038-.403.114-.567a.878.878 0 01.323-.376l.003-.002a.899.899 0 01.475-.133h.02-.001c.251 0 .453.068.606.205s.243.329.268.578h-.394c-.019-.163-.067-.281-.144-.353s-.188-.109-.336-.109l-.023-.001a.463.463 0 00-.373.188l-.001.001c-.092.125-.138.309-.141.552v.202c0 .246.044.433.132.563s.218.194.387.194c.155 0 .272-.035.35-.105s.128-.186.148-.348h.394zm2.17-.338c0 .223-.038.419-.115.588a.88.88 0 01-.329.386l-.003.002a.899.899 0 01-.474.134h-.021.001-.015a.918.918 0 01-.482-.136l.004.002a.905.905 0 01-.33-.375l-.002-.005-.002-.006a1.317 1.317 0 01-.119-.551v-.154c0-.222.038-.418.117-.588s.19-.3.333-.389c.144-.091.308-.136.493-.136s.35.045.493.134c.143.089.255.217.333.384s.118.362.118.584v.126zm-.396-.118c0-.252-.048-.445-.143-.58a.464.464 0 00-.383-.202h-.001l-.022.001h-.015a.467.467 0 00-.383.199l-.001.001-.001.002c-.096.133-.145.323-.147.567v.131c0 .25.049.444.146.58s.233.205.406.205c.175 0 .31-.067.403-.2.095-.133.142-.328.142-.584v-.118z" />
        </symbol>
        <symbol id="logo2" viewBox="0 0 25 32">
            <path d="M10.447 1.806h.084c.156 0 .324.015.49.03.807.058 1.552.175 2.275.348l-.095-.019V.403a11.93 11.93 0 00-2.167-.355l-.04-.002-.042-.002c-.254-.02-.571-.035-.889-.043h-.284c-1.523.006-3.04.201-4.514.582A18.25 18.25 0 00.39 2.577l.085-.046v17.475a18.408 18.408 0 014.299-1.721l.132-.029.135-.029c1.123-.3 2.433-.51 3.78-.586l.052-.002h.052c.217-.011.433-.017.655-.018V15.83c-1.78.024-3.493.264-5.129.695l.147-.033c-.603.157-1.185.326-1.731.513l-.623.212V3.591l.266-.128C4.4 2.545 6.606 1.95 8.935 1.814l.047-.002.028-.001.029.001h-.001c.248-.012.497-.018.742-.018h.28c.129.003.258.006.388.014z" />
            <path d="M14.837 3.651h-.016c-.915 0-1.811-.077-2.684-.225l.094.013c-.277-.047-.55-.103-.814-.164V20.55c1.12.277 2.271.412 3.425.404a18.484 18.484 0 004.773-.64l-.129.03-.128.029a18.281 18.281 0 004.96-2.041l-.168.093V1.262a18.507 18.507 0 01-4.296 1.721l-.133.03-.136.03a18.853 18.853 0 01-4.742.609h-.004zm6.908.299l.623-.209v13.63l-.266.129c-.903.442-1.962.834-3.065 1.118l-.119.026a16.124 16.124 0 01-4.07.527h-.004c-.411 0-.818-.017-1.214-.052l-.426-.038V5.064l.497.033c.361.023.735.034 1.141.034a21.144 21.144 0 005.468-.73l-.148.034-.147.033c.782-.205 1.36-.382 1.929-.577l-.198.059zM1.684 25.977a.915.915 0 00-.66-.281h-.001l-.034.001H.977c-.139 0-.272.028-.393.078l.007-.003a.909.909 0 00-.508.506l-.002.006-.002.006a.985.985 0 00-.071.371v.016-.001 2.335c-.006.164.026.328.092.479.055.12.135.226.234.313a.83.83 0 00.314.165l.006.001c.114.031.231.048.349.048a.985.985 0 00.968-.982v-.261H1.36v.222c0 .07-.013.136-.037.198l.001-.004a.37.37 0 01-.089.132.423.423 0 01-.255.089.31.31 0 01-.286-.124l-.001-.001-.001-.001a.548.548 0 01-.082-.288v-.001l.001-.024v.001-2.177-.024c0-.118.028-.23.077-.33l-.002.004a.31.31 0 01.261-.143h.001l.038.002h.011c.107 0 .201.052.26.131l.001.001a.49.49 0 01.101.299v.216h.604v-.249c0-.143-.027-.28-.077-.405l.003.007a.955.955 0 00-.205-.329zm3.626-.026a1.045 1.045 0 00-1.065-.189l.007-.002a.973.973 0 00-.555.505l-.002.006-.002.006a1.07 1.07 0 00-.089.43v.023-.001 2.239c-.004.158.026.314.089.458a.887.887 0 00.236.312l.001.001c.09.084.197.15.315.195l.007.002a1.046 1.046 0 001.06-.199l-.001.001-.001.001a.958.958 0 00.228-.307l.002-.006c.063-.144.093-.301.089-.458v-2.26c0-.156-.033-.304-.092-.438l.003.007a1.027 1.027 0 00-.23-.327zm-.285 3.018l.002.035v.001a.398.398 0 01-.123.288.446.446 0 01-.575-.001l.001.001.001.001a.398.398 0 01-.123-.288l.002-.04v.004-2.239l-.001-.034c0-.113.047-.216.123-.288a.446.446 0 01.575.001l-.001-.001-.001-.001a.398.398 0 01.123.288l-.002.04v-.004 2.24zm5.047 1v-4.24h-.586l-.771 2.244h-.01l-.777-2.244h-.58v4.239h.606V27.39h.011l.593 1.823h.302l.598-1.823h.01v2.578h.606zm3.441-3.942a.832.832 0 00-.336-.23l-.006-.002a1.283 1.283 0 00-.411-.066h-.929v4.24h.604v-1.656h.311c.189.009.376-.031.545-.116a.894.894 0 00.327-.316l.002-.004.002-.004a.981.981 0 00.137-.363l.001-.006c.021-.133.033-.287.033-.444v-.038l.001-.07c0-.19-.022-.375-.063-.553l.003.016a.906.906 0 00-.223-.39zm-.312 1.292a.552.552 0 01-.058.227l.001-.003.001-.003a.346.346 0 01-.152.146l-.002.001-.002.001a.608.608 0 01-.252.054h-.002l-.033-.001h-.274V26.3h.311l.029-.001c.088 0 .172.02.247.055l-.004-.002c.062.036.11.089.14.152l.001.002.001.002c.032.069.051.15.053.235v.283c0 .098.006.201 0 .291H13.2zm3.173-1.59h-.495l-.934 4.24h.604l.177-.911h.823l.178.911h.604l-.957-4.24zm-.557 2.752l.297-1.537h.011l.295 1.537h-.604zm4.46-.198h-.011l-.913-2.554h-.58v4.24h.604v-2.55h.012l.923 2.549h.568v-4.239h-.604v2.554zm3.691-2.554l-.486 1.686h-.012l-.486-1.686h-.639l.83 2.448v1.791h.604v-1.791l.83-2.447h-.64zM0 31.166h.291v.817h.198v-.817h.289v-.167H0v.168zm2.447-.168l-.382.985h.21l.081-.224h.392l.084.224h.215l-.391-.985h-.21zm-.03.595l.134-.365.134.365h-.268zm2.449.027h.228v.127a.38.38 0 01-.234.083h-.014a.252.252 0 01-.195-.093.4.4 0 01-.073-.232v-.002l.001-.023v.001c0-.219.095-.329.283-.329l.021-.001c.097 0 .178.067.201.157v.001l.194-.038c-.042-.192-.18-.289-.417-.289h-.013-.001a.49.49 0 00-.33.127.48.48 0 00-.143.341l.002.04v-.004.023c0 .132.048.254.127.347l-.001-.001c.087.09.209.146.343.146L4.877 32h.015c.155 0 .296-.06.402-.157v-.388h-.426v.166zm2.471-.622h-.199v.985h.689v-.167h-.49v-.817zm2.089 0h-.199v.985h.199v-.985zm2.043.657l-.404-.657h-.193v.985h.185v-.643l.396.643h.198v-.985h-.182v.658zm1.846-.106h.49v-.167h-.49v-.215h.527v-.168h-.727v.985h.747v-.167h-.548v-.266zm4.477-.163h-.388v-.388h-.198v.984h.198v-.431h.388v.431h.198v-.985h-.198v.388zm1.857.163h.492v-.167h-.492v-.215h.529v-.168h-.726v.985h.746v-.167h-.548v-.266zm2.519.001c.172-.027.258-.118.258-.274a.23.23 0 00-.095-.219h-.002a.55.55 0 00-.249-.059h-.001l-.04.001h-.415v.984h.198v-.412h.055c.039 0 .076.008.109.023l-.002-.001a.195.195 0 01.069.071l.001.001.215.313h.236l-.12-.192a.692.692 0 00-.213-.233l-.002-.002-.002-.002zm-.199-.137h-.146v-.247h.156a.5.5 0 01.209.025l-.004-.001-.004-.001a.13.13 0 01-.008.2.52.52 0 01-.162.025h-.002l-.039-.001h.002zm2.099.136h.49v-.167h-.49v-.215h.529v-.168h-.728v.985h.747v-.167h-.548v-.266z" />
        </symbol>
        <symbol id="logo3" viewBox="0 0 31 32">
            <path d="M4.722 31.103c.023.001.044.01.06.025l.153.161c-.119.13-.266.234-.431.304a1.51 1.51 0 01-.569.11l-.043-.001h.002-.031c-.199 0-.39-.039-.564-.11l.01.004.01.004a1.256 1.256 0 01-.706-.716l-.003-.009-.003-.009a1.574 1.574 0 01-.097-.547v-.047c0-.198.038-.387.108-.56l-.004.01c.142-.34.412-.602.748-.731l.009-.003c.188-.07.389-.104.591-.102h.034c.185 0 .362.034.526.097l-.01-.003c.151.063.29.149.412.257l-.129.171a.157.157 0 01-.032.031.074.074 0 01-.044.014h-.007a.107.107 0 01-.056-.019l-.068-.045-.096-.059a.994.994 0 00-.29-.1l-.006-.001-.006-.001a1.233 1.233 0 00-.209-.018h-.035c-.147 0-.288.028-.417.079l.008-.003a.964.964 0 00-.333.216 1.005 1.005 0 00-.214.335l-.002.007c-.05.13-.079.28-.079.437v.016-.001c-.002.156.025.313.079.46.046.126.119.242.212.341a.877.877 0 00.312.21l.006.002c.125.049.259.074.394.073.078.001.156-.004.234-.015a.878.878 0 00.505-.235.115.115 0 01.072-.03zm4.422-.807c.002.194-.033.387-.103.568a1.246 1.246 0 01-.288.44 1.319 1.319 0 01-.435.283l-.009.003-.009.003a1.688 1.688 0 01-1.188-.008l.012.004.012.004a1.331 1.331 0 01-.45-.29 1.306 1.306 0 01-.285-.427l-.003-.009-.003-.009a1.608 1.608 0 01.008-1.158l-.004.011-.004.011a1.36 1.36 0 01.29-.447c.123-.117.27-.21.432-.273l.009-.003.009-.003a1.668 1.668 0 011.188.008L8.312 29l-.012-.004c.34.131.604.392.738.72l.003.009c.071.182.106.376.104.571zm-.402 0v-.024c0-.155-.027-.303-.076-.441l.003.009a.913.913 0 00-.516-.552l-.006-.002-.006-.002a1.215 1.215 0 00-.863.006l.008-.003.009-.003a.903.903 0 00-.526.544l-.002.006-.002.006a1.464 1.464 0 00.003.922l-.003-.01a.904.904 0 00.518.55l.006.002.006.002c.273.097.573.097.846 0a.908.908 0 00.324-.214.983.983 0 00.203-.334l.002-.007c.046-.128.073-.275.073-.429v-.029.001zm3.418.478l.041.102c.015-.036.028-.069.044-.102.017-.04.034-.073.052-.105l-.002.005.978-1.694c.019-.03.037-.048.056-.053s.041-.009.064-.009h.305v2.755h-.342v-2.11l-.001-.048.001-.05v.002l-.984 1.718a.153.153 0 01-.056.062h-.002a.156.156 0 01-.081.022h-.064a.152.152 0 01-.135-.083v-.002l-1.013-1.73v2.212h-.331v-2.75h.305c.023 0 .046.004.067.01h-.004a.114.114 0 01.053.051v.002l.999 1.696c.018.028.035.06.048.094l.001.004zm3.681-.136v1.031h-.383v-2.75h.887c.158 0 .311.022.455.063l-.012-.003a.953.953 0 01.339.172l-.002-.001c.085.074.15.167.191.27.042.102.066.22.066.343v.023a.842.842 0 01-.073.344l.002-.005a.766.766 0 01-.204.273l-.001.001-.001.001a.951.951 0 01-.326.179l-.007.002-.007.002c-.13.041-.279.064-.434.064h-.028l-.462-.007zm0-.296h.464c.1.002.201-.013.296-.042a.626.626 0 00.216-.121l-.001.001-.001.001c.056-.049.1-.11.129-.178l.001-.003a.559.559 0 00.046-.223v-.01l.001-.028a.504.504 0 00-.042-.202l.001.003.001.003a.553.553 0 00-.133-.188.758.758 0 00-.52-.148h.003-.461v1.134zm5.146 1.331h-.308a.134.134 0 01-.079-.026.173.173 0 01-.049-.062v-.002l-.26-.665h-1.307l-.27.665a.159.159 0 01-.047.061.135.135 0 01-.082.028h-.307l1.148-2.756h.398l1.164 2.756zm-1.895-1.023h1.079l-.455-1.122a1.789 1.789 0 01-.08-.232l-.003-.013-.003-.013-.044.144a1.35 1.35 0 01-.048.134l.003-.008.003-.009-.452 1.119zm3.548-1.72c.023.013.043.03.058.05l1.674 2.076v-2.139h.342v2.756h-.196-.001a.168.168 0 01-.074-.017h.002a.233.233 0 01-.061-.051L22.71 29.53l.002.047-.002.05v-.002 2.049h-.342v-2.756h.203c.024 0 .047.004.068.013zm4.897 1.647v1.094h-.383v-1.094l-1.058-1.66h.35c.028 0 .054.009.075.024.02.017.038.037.051.06l.001.001.001.001.662 1.07c.043.07.082.15.113.235l.003.009.05-.118a.988.988 0 01.07-.134l-.002.004-.002.004.653-1.078a.284.284 0 01.05-.059.115.115 0 01.075-.027h.353l-1.06 1.667zm-15.566-6.284c.167.02.335.037.506.051 2.582-1.101 4.767-2.902 6.281-5.18s2.29-4.93 2.231-7.625l-2.846-2.712c.189.894.297 1.921.297 2.974 0 2.015-.396 3.937-1.115 5.694l.036-.1c-1.09 2.731-2.957 5.12-5.39 6.899z" />
            <path d="M10.954 24.167l.077.015c2.6-1.773 4.583-4.247 5.692-7.104.627-1.564.991-3.378.991-5.276 0-1.296-.17-2.553-.488-3.748l.023.101-4.054-3.862c1.269 2.397 2.015 5.239 2.015 8.255 0 .701-.04 1.393-.119 2.074l.008-.083c-.397 3.519-1.834 6.857-4.144 9.628zm13.75-9.443c-.688 2.962-2.361 5.632-4.77 7.616a14.865 14.865 0 01-2.118 1.471l-.073.039-.075.039a13.62 13.62 0 005.301-2.864l-.016.013-.016.013a12.821 12.821 0 003.349-4.596l.032-.083.031-.084-1.645-1.565z" />
            <path d="M24.06 14.288l-2.341-2.23a13.625 13.625 0 01-2.262 7.3l.032-.051.032-.053c-1.394 2.169-3.373 3.943-5.729 5.137h.012c.525 0 1.049-.03 1.572-.089a14.548 14.548 0 005.635-3.934l.014-.016.014-.017a13.328 13.328 0 002.988-5.869l.017-.089.016-.089zM11.294 2.664L8.501 0c-2.497.919-4.644 2.535-6.16 4.636S.008 9.225.001 11.775c.01 2.818 1.005 5.552 2.829 7.77s4.372 3.793 7.242 4.476c2.562-2.973 4.061-6.647 4.281-10.488s-.851-7.648-3.059-10.87zm19.218 11.214c-.01-3.343-1.409-6.547-3.89-8.91s-5.843-3.696-9.352-3.706h-.02c-1.695 0-3.317.308-4.815.872l.094-.031 17.099 16.29c.559-1.335.884-2.886.884-4.513v-.001z" />
        </symbol>
        <symbol id="logo4" viewBox="0 0 60 32">
            <path d="M9.229 9.548h-.002c-1.683 0-3.048 1.331-3.048 2.971v.002c0 1.64 1.365 2.971 3.048 2.971h.002c1.683 0 3.048-1.331 3.048-2.971v-.002c0-1.64-1.365-2.97-3.048-2.97zm22.501-.949a8.486 8.486 0 00-2.588-6.073l-.002-.002A8.924 8.924 0 0022.909 0c-2.339.004-4.581.912-6.236 2.523s-2.585 3.797-2.59 6.076v12.566S31.728 19.25 31.73 8.601v-.002zM0 25.289a5.891 5.891 0 001.799 4.224l.002.002.002.001a6.204 6.204 0 004.335 1.758h.006a6.196 6.196 0 004.334-1.76l-.001.001-.002.002a5.89 5.89 0 001.803-4.223v-8.747S0 17.882 0 25.29zm6.14 1.566h-.003c-.331 0-.639-.098-.897-.267l.006.004a1.591 1.591 0 01-.584-.683l-.004-.01-.004-.01a1.48 1.48 0 01-.087-.924l-.002.01-.002.01c.067-.317.223-.591.441-.802.22-.213.5-.365.813-.427l.01-.002c.312-.061.635-.03.929.089s.545.319.722.577a1.553 1.553 0 01.142 1.491l.004-.01.004-.01c-.08.191-.199.365-.348.511s-.327.262-.522.341c-.18.076-.39.12-.61.12h-.007v-.006zm12.532-.971h-1.256v1.297h-.655v-3.173h2.067v.53h-1.412v.819h1.255v.528zm3.143-.218c0 .313-.056.586-.166.822s-.269.417-.476.545a1.275 1.275 0 01-.677.192h-.029c-.263 0-.498-.063-.704-.19a1.289 1.289 0 01-.474-.525l-.003-.008-.003-.008a1.8 1.8 0 01-.172-.776v-.193c0-.313.056-.588.168-.825a1.27 1.27 0 01.472-.544l.005-.003c.206-.128.442-.192.707-.192s.499.064.704.192c.206.127.365.309.477.547s.17.511.17.822v.141zm-.662-.144c0-.333-.06-.586-.179-.759a.588.588 0 00-.485-.26l-.027.001h-.023-.001a.582.582 0 00-.48.254l-.001.002-.001.002c-.119.17-.18.42-.182.749v.155c0 .324.06.576.179.755s.291.268.515.268l.026.001c.2 0 .375-.101.479-.255l.001-.002c.118-.173.177-.424.179-.755v-.155zm2.783.826v-.018-.001a.328.328 0 00-.13-.262l-.001-.001-.001-.001c-.087-.067-.244-.137-.47-.21a3.343 3.343 0 01-.576-.236l.018.009.019.009c-.36-.195-.541-.457-.541-.787 0-.171.048-.324.144-.458s.236-.24.417-.316c.182-.075.385-.113.61-.113s.429.042.606.124a.953.953 0 01.41.344l.002.003c.099.15.149.32.149.511h-.655l.001-.026a.423.423 0 00-.137-.312c-.092-.082-.22-.123-.386-.123-.16 0-.284.034-.372.103a.317.317 0 00-.134.258V24.854c0 .103.052.189.155.259.105.07.258.135.461.196.372.112.643.251.813.417s.255.372.255.618c0 .275-.104.491-.312.647s-.487.234-.839.234c-.244 0-.467-.045-.667-.133a1.089 1.089 0 01-.456-.362l-.002-.003-.002-.003a.929.929 0 01-.157-.518v-.022h.656c0 .35.21.525.628.525l.036.001a.603.603 0 00.331-.097l-.002.001a.312.312 0 00.131-.253v-.013zm3.49-1.811h-.972v2.644H25.8v-2.644h-.959v-.53h2.586v.53zm2.286 1.268h-1.256v.85h1.474v.525h-2.128v-3.173h2.124v.53h-1.47v.756h1.256v.513zm1.777.214h-.521v1.162h-.655v-3.173h1.18c.374 0 .664.083.868.251s.305.403.305.708l.001.032a.99.99 0 01-.144.515l.002-.004a.968.968 0 01-.413.339l-.006.002-.006.002.687 1.297v.03h-.703l-.595-1.162zm-.521-.53h.528c.164 0 .291-.042.381-.124a.449.449 0 00.136-.322v-.001l-.001-.025v.001l.001-.027a.47.47 0 00-.13-.326c-.084-.086-.214-.129-.39-.129h-.526v.953zm3.963.573v1.119h-.655v-3.173h1.239c.238 0 .447.043.628.131s.321.211.418.372c.097.16.146.342.146.548 0 .311-.106.557-.32.737-.212.179-.506.268-.883.268h-.573zm0-.529h.584c.173 0 .304-.041.394-.123.092-.081.138-.197.138-.348l.001-.023a.522.522 0 00-.139-.355.518.518 0 00-.364-.149h-.017.001-.599v.997zm4.138.272h-1.255v.85h1.474v.525H37.16v-3.173h2.124v.53h-1.469v.756h1.255v.513zm3.035-1.268h-.972v2.644h-.655v-2.644h-.959v-.53h2.585v.53zm2.284 1.268h-1.255v.85h1.474v.525h-2.128v-3.173h2.124v.53h-1.47v.756h1.256v.513zm1.778.214h-.521v1.162h-.654v-3.173h1.18c.375 0 .665.083.868.251s.305.403.305.708l.001.035a.985.985 0 01-.144.513l.002-.004a.968.968 0 01-.413.339l-.006.002-.006.002.686 1.297v.03h-.702l-.595-1.162zm-.521-.53h.528c.164 0 .29-.042.381-.124a.448.448 0 00.135-.321v-.002l-.001-.026v.001l.001-.028a.472.472 0 00-.129-.325c-.085-.086-.214-.129-.391-.129h-.525v.953zm3.843.859v-.018-.001a.328.328 0 00-.13-.262l-.001-.001-.001-.001c-.087-.067-.244-.137-.47-.21a3.343 3.343 0 01-.576-.236l.018.009.019.009c-.36-.195-.541-.457-.541-.787 0-.171.048-.324.144-.458s.236-.24.417-.316c.181-.075.385-.113.61-.113s.429.042.606.124a.953.953 0 01.41.344l.002.003c.099.15.148.32.148.511h-.654a.423.423 0 00-.136-.338c-.092-.082-.22-.123-.386-.123-.16 0-.284.034-.373.103a.316.316 0 00-.133.258v.008c0 .103.052.189.155.259.105.07.258.135.46.196.372.112.644.251.813.417s.255.372.255.618c0 .275-.104.491-.312.647s-.487.234-.839.234c-.244 0-.467-.045-.667-.133a1.089 1.089 0 01-.456-.362l-.002-.003-.002-.003a.929.929 0 01-.157-.518v-.022h.656c0 .35.21.525.628.525l.036.001a.603.603 0 00.331-.097l-.002.001a.311.311 0 00.13-.253v-.013z" />
        </symbol>
        <symbol id="logo5" viewBox="0 0 40 32">
            <path d="M3.056 26.742c.157.194.24.438.236.688l.001.053c0 .324-.141.615-.365.815l-.001.001a1.565 1.565 0 01-1.066.317h.005H.001v-4.361h1.827a1.543 1.543 0 011.022.297l-.004-.003-.004-.003a.995.995 0 01.353.821v-.006c.011.24-.065.477-.212.667a.993.993 0 01-.549.339l-.007.001c.247.046.471.177.63.373zm-2.188-.658h.78a.73.73 0 00.498-.146l-.002.001a.516.516 0 00.169-.383l-.002-.045v.002l.001-.037v-.001a.531.531 0 00-.167-.388.749.749 0 00-.517-.147h.003-.764v1.144zm1.354 1.672a.54.54 0 00.186-.408l-.001-.036v.002l.001-.032a.55.55 0 00-.188-.415l-.001-.001-.001-.001a.796.796 0 00-.479-.159h-.001l-.054.002H.868v1.199h.829a.811.811 0 00.526-.153l-.002.002zm4.568.861l-1.016-1.704h-.382v1.704h-.874v-4.361h1.654a1.615 1.615 0 011.158.375l-.003-.002-.003-.002a1.388 1.388 0 01.118 1.812l.003-.003.003-.004a1.339 1.339 0 01-.781.442l-.008.001 1.083 1.743h-.95zm-1.398-2.299h.715c.497 0 .745-.22.745-.66l.001-.037v-.001a.645.645 0 00-.184-.452.764.764 0 00-.569-.176h.003-.721l.009 1.328zm6.176 1.421H9.826l-.308.878h-.916l1.6-4.313h.991l1.593 4.312h-.916l-.301-.878zm-.233-.66l-.637-1.84-.637 1.84h1.273zm6.215 1.538h-.869l-1.946-2.965v2.965h-.865v-4.361h.865l1.946 2.982v-2.982h.868v4.361zm4.952-1.044c-.182.33-.45.593-.775.764l-.01.005a2.516 2.516 0 01-1.151.275l-.073-.001h.004-1.546v-4.361l1.613-.001c.42 0 .817.1 1.168.277l-.015-.007c.332.168.606.433.786.761.171.333.272.727.272 1.144s-.1.811-.278 1.158l.007-.014zm-.993-.104c.239-.278.384-.642.384-1.041s-.145-.763-.386-1.043l.002.002a1.495 1.495 0 00-1.095-.37h.005-.599v2.823h.603a1.486 1.486 0 001.089-.374l-.002.001-.002.001zM12.111 0s11.201 4.246 10.964 10.39v10.392S11.882 16.534 12.116 10.39L12.111 0zm20.942 18.349a14.994 14.994 0 016.981-2.622l.136-.012v-3.253c-2.995 1.181-5.437 3.227-7.081 5.827l-.035.06z" />
            <path d="M31.782 19.329c1.749-3.487 4.693-6.158 8.283-7.513l.105-.035V2.408S24.218 8.456 24.555 17.205v14.796s.711-.27 1.829-.778c0-.473 0-.95.05-1.43a15.386 15.386 0 015.307-10.43l.02-.017.021-.017z" />
            <path d="M30.266 24.825c.093-1.118.291-2.149.586-3.138l-.028.108a14.167 14.167 0 00-3.378 8.906v.031a41.911 41.911 0 003.49-1.853l-.204.112-.218.118c-.191-.908-.3-1.952-.3-3.021 0-.445.019-.885.056-1.32l-.004.057zm.634.053a14.899 14.899 0 00.227 4.064l-.015-.094-.015-.092c4.358-2.619 9.255-6.664 9.067-11.553v-.426a14.263 14.263 0 00-8.302 3.898l.005-.004.005-.005a13.852 13.852 0 00-.965 4.108l-.003.05-.003.052z" />
        </symbol>
        <symbol id="logo6" viewBox="0 0 62 32">
            <path d="M31.123 14.854a2.23 2.23 0 01-.395-1.444v.014-2.074c0-.637.132-1.12.394-1.45s.715-.495 1.356-.494c.602 0 1.03.141 1.282.422.275.359.41.798.379 1.241v.487h-1.077v-.494l.001-.064c0-.148-.012-.293-.034-.435l.002.016a.482.482 0 00-.153-.287.566.566 0 00-.342-.113h-.003l-.048.002h.002a.611.611 0 00-.414.12l.002-.001.002-.001a.565.565 0 00-.177.309l-.001.004-.001.004c-.027.14-.042.302-.042.467v.048-.002 2.518a1.406 1.406 0 00.146.723l-.004-.008-.004-.008a.532.532 0 00.209.17l.003.001.003.001a.531.531 0 00.282.04h-.006a.54.54 0 00.383-.116l-.001.001-.001.001a.526.526 0 00.16-.3v-.006c.026-.167.037-.336.034-.504v-.511h1.077v.466a2.006 2.006 0 01-.381 1.317l.004-.006.004-.006c-.247.308-.669.462-1.288.462s-1.088-.164-1.354-.506zm4.485.022c-.272-.323-.408-.794-.408-1.416v-2.183c0-.616.136-1.082.408-1.399s.726-.474 1.364-.473c.633 0 1.085.158 1.358.473.271.317.41.783.41 1.399v2.183c0 .616-.139 1.089-.415 1.414-.277.325-.727.487-1.354.487s-1.09-.164-1.364-.485zm1.865-.524c.097-.202.142-.424.129-.646v-2.672l.002-.072v-.001c0-.207-.049-.402-.136-.575l.003.007.003.007a.533.533 0 00-.213-.172l-.003-.001-.003-.001a.527.527 0 00-.29-.037h.006a.562.562 0 00-.292.04l.004-.001.004-.001a.528.528 0 00-.218.171l-.001.001-.001.001a1.222 1.222 0 00-.128.637v-.004 2.685c-.002.024-.002.051-.002.079 0 .207.049.402.135.575l-.003-.007a.665.665 0 00.218.156l.004.002.004.002a.683.683 0 00.563-.004l-.004.002-.005.002a.672.672 0 00.226-.16v-.013zm2.562-4.884h1.16l.872 4.028.892-4.028h1.128l.113 5.813h-.833l-.089-4.04-.861 4.04h-.669l-.892-4.054-.083 4.054h-.843l.104-5.812zm5.465 0h1.806c1.04 0 1.56.55 1.56 1.651 0 1.054-.547 1.58-1.643 1.579h-.614v2.583h-1.115l.007-5.812zm1.543 2.484a.785.785 0 00.614-.184l-.001.001a.998.998 0 00.159-.662v.004l.001-.067c0-.163-.02-.322-.057-.474l.003.014a.418.418 0 00-.084-.162l.001.001.001.001a.488.488 0 00-.137-.115l-.002-.001-.002-.001a1.043 1.043 0 00-.502-.092h.003-.43v1.736h.433zm3.431-2.484h1.197l1.229 5.813h-1.039l-.243-1.341H50.55l-.25 1.341h-1.055l1.229-5.812zm1.023 3.799l-.417-2.44-.417 2.44h.835zm2.395-3.799h.779l1.494 3.316V9.468h.925v5.812h-.742l-1.503-3.462v3.462h-.957l.002-5.812zm5.366 3.596l-1.242-3.588h1.046l.758 2.305.711-2.305h1.023l-1.226 3.588v2.216h-1.071v-2.216zm-26.413 4.758v.304h-.91v2.362h-.381v-2.362h-.914v-.304h2.205zm2.852 2.666h-.302a.124.124 0 01-.075-.026.138.138 0 01-.048-.059v-.002l-.263-.633h-1.262l-.264.633a.181.181 0 01-.04.072.123.123 0 01-.075.025h-.302l1.115-2.666h.387l1.128 2.655zm-1.847-.99h1.053l-.446-1.085a1.748 1.748 0 01-.077-.223l-.003-.013-.003-.014-.042.141-.04.111-.442 1.083zm3.769.728c.07.003.139.003.209 0a1.39 1.39 0 00.357-.087l-.009.003-.009.003c.049-.019.099-.042.15-.065v-.6h-.451a.084.084 0 01-.055-.021.06.06 0 01-.022-.045v-.209h.865v1.022c-.132.09-.284.163-.448.211l-.023.006a1.652 1.652 0 01-.26.054l-.009.001-.009.001a2.762 2.762 0 01-.313.017h-.026c-.197 0-.386-.037-.56-.103l.011.004a1.34 1.34 0 01-.447-.28l.001.001.001.001a1.31 1.31 0 01-.282-.406l-.003-.008-.003-.008a1.4 1.4 0 01-.103-.532V19.149c0-.195.037-.38.105-.551l-.004.01c.064-.158.161-.301.287-.422.127-.12.279-.214.446-.277.171-.063.368-.099.574-.099h.025-.001c.104 0 .207.007.31.023.09.014.179.036.266.067.086.031.159.066.228.109l-.005-.003c.069.042.134.088.195.139l-.108.165a.103.103 0 01-.036.036.094.094 0 01-.05.014h-.001a.144.144 0 01-.071-.021h.002a1.071 1.071 0 01-.119-.069l.005.003.005.003a.874.874 0 00-.137-.068l-.006-.002-.007-.002a1.242 1.242 0 00-.189-.057l-.008-.001-.008-.001a1.424 1.424 0 00-.261-.023h-.035c-.15 0-.293.027-.425.077l.008-.003a.904.904 0 00-.328.211.93.93 0 00-.205.326l-.002.006a1.332 1.332 0 00.006.907l-.003-.009-.003-.009c.049.125.125.24.223.335a.93.93 0 00.32.209l.006.002c.142.046.292.064.442.053zm3.553-.042h1.217v.304h-1.59v-2.666h.381l-.009 2.362zm2.484.303h-.381v-2.664h.381v2.666zm1.418-2.653a.22.22 0 01.057.048l1.63 2.01-.002-.048.002-.05v.002-1.986h.332v2.676h-.191l-.013.001a.173.173 0 01-.072-.016h.002a.266.266 0 01-.06-.05l-1.628-2.007v2.072h-.319v-2.665h.198c.022 0 .043.004.063.013zm4.827-.012v.294H48.55v.88h1.095v.282H48.55v.91h1.351v.294h-1.743v-2.659h1.743zM9.95 1.359l16.929 4.55v15.946L9.952 17.308V1.359zM8.865 0v18.081l19.098 5.135V5.136L8.865-.001z" />
            <path d="M19.1 31.61L0 26.471V8.391l19.1 5.137V31.61z" />
            <path d="M9.181 1.155l16.707 4.493-7.105 6.728-16.71-4.495L9.18 1.154zM8.865 0L0 8.392l19.1 5.137 8.863-8.392L8.865 0zm11.31 30.593l7.788-7.374-7.788-2.096v9.47z" />
        </symbol>
        <symbol id="smartphone" viewBox="0 0 20 32">
            <path d="M17 0H3C1.346 0 0 1.346 0 3v26c0 1.654 1.346 3 3 3h14c1.654 0 3-1.346 3-3V3c0-1.654-1.346-3-3-3zM3 2h14a1 1 0 011 1v21H2V3a1 1 0 011-1zm14 28H3a1 1 0 01-1-1v-3h16v3a1 1 0 01-1 1z" />
            <path d="M4.708 27.478a.887.887 0 01.001 1.318l-.001.001-.001.001a1.044 1.044 0 01-1.417 0l.001.001.001.001a.887.887 0 01-.001-1.318l.001-.001.001-.001a1.044 1.044 0 011.418 0l-.001-.001-.001-.001z" />
        </symbol>
        <symbol id="twitter" viewBox="0 0 32 32">
            <path d="M32 6.078c-1.1.493-2.376.857-3.713 1.028l-.068.007a6.587 6.587 0 002.859-3.533l.014-.046.013-.046a12.656 12.656 0 01-3.993 1.559l-.083.014-.084.014A6.558 6.558 0 0015.6 9.557v.004c0 .52.043 1.021.152 1.496-5.454-.266-10.28-2.88-13.522-6.861a6.45 6.45 0 00-.902 3.31v.004a6.565 6.565 0 002.891 5.436l.023.015a6.422 6.422 0 01-3.026-.84l.032.017.033.017v.072a6.595 6.595 0 005.169 6.432l.087.016a6.235 6.235 0 01-1.645.215h-.075c-.419 0-.843-.024-1.242-.112.85 2.598 3.261 4.509 6.13 4.57a13.012 13.012 0 01-8.092 2.8h-.104c-.531 0-1.055-.034-1.569-.099l.061.006c2.826 1.846 6.287 2.944 10.004 2.944h.06c12.072 0 18.672-10 18.672-18.669 0-.288-.01-.57-.024-.848a13.327 13.327 0 003.229-3.309l.029-.046.03-.047z" />
        </symbol>
        <symbol id="send">
            <path d="M24 0L0 13.5l7.67 2.84L19.5 5.25l-8.998 12.14.007.002-.009-.002V24l4.301-5.018L20.251 21 24 0z" />
        </symbol>
        <symbol id="personebp">
            <path d="M9 9a3 3 0 100-6 3 3 0 100 6zm0 1.5c-2.003 0-6 1.005-6 3v.75c0 .412.337.75.75.75h10.5c.412 0 .75-.338.75-.75v-.75c0-1.995-3.998-3-6-3z" />
        </symbol>
        <symbol id="phonebp">
            <path d="M13.996 11.123l-1.838-.21a1.44 1.44 0 00-1.187.412l-1.332 1.332a10.888 10.888 0 01-4.769-4.77L6.21 6.55a1.44 1.44 0 00.412-1.187l-.21-1.824a1.448 1.448 0 00-1.44-1.28H3.72c-.818 0-1.498.68-1.448 1.497.384 6.18 5.327 11.116 11.5 11.5.817.05 1.498-.63 1.498-1.448v-1.252a1.434 1.434 0 00-1.274-1.432z" />
        </symbol>
        <symbol id="emailbp">
            <path d="M15 3H3c-.825 0-1.492.675-1.492 1.5l-.008 9c0 .825.675 1.5 1.5 1.5h12c.825 0 1.5-.675 1.5-1.5v-9c0-.825-.675-1.5-1.5-1.5zm-.3 3.188L9.398 9.502a.759.759 0 01-.796 0L3.3 6.188a.637.637 0 11.675-1.08L9 8.25l5.025-3.143a.637.637 0 11.675 1.08z" />
        </symbol>

    </defs>
</svg>